# xmcd
#
# Track frame offsets: 
#        150
#        26152
#        44245
#        62165
#        77200
#        91695
#        105100
#        119462
#        134387
#        150195
#
# Disc length: 2201 seconds
#
# Revision: 0
# Processed by: cddbd v1.5.2PL0 Copyright (c) Steve Scherf et al.
# Submitted via: ExactAudioCopy v0.99pb4
#
DISCID=7908970a
DTITLE=Rufus Thomas  - Did You Heard Me
DYEAR=1900
DGENRE=Soul
TTITLE0=(Do The) Push And Pull Parts 1&2
TTITLE1=The World Is Round
TTITLE2=For Sentimental Reasons
TTITLE3=The Breakdown Part 1
TTITLE4=The Breakdown Part 2
TTITLE5=Love Trap
TTITLE6=Do The Funky Penguin Part 1
TTITLE7=Do The Funky Penguin Part 2
TTITLE8=Ditch Digging
TTITLE9=6-3-8 (That's The Number To Play)
EXTD=
EXTT0=
EXTT1=
EXTT2=
EXTT3=
EXTT4=
EXTT5=
EXTT6=
EXTT7=
EXTT8=
EXTT9=
PLAYORDER=
